<?xml version="1.0" standalone="no"?>
<!DOCTYPE svg PUBLIC "-//W3C//DTD SVG 20010904//EN"
 "http://www.w3.org/TR/2001/REC-SVG-20010904/DTD/svg10.dtd">
<svg version="1.0" xmlns="http://www.w3.org/2000/svg"
 width="600.000000pt" height="600.000000pt" viewBox="0 0 600.000000 600.000000"
 preserveAspectRatio="xMidYMid meet">
<metadata>
Created by potrace 1.11, written by Peter Selinger 2001-2013
</metadata>
<g transform="translate(0.000000,600.000000) scale(0.100000,-0.100000)"
fill="#000000" stroke="none">
<path d="M0 3000 l0 -3000 3000 0 3000 0 0 3000 0 3000 -3000 0 -3000 0 0
-3000z m1995 930 c346 -131 442 -565 181 -826 -113 -113 -266 -165 -419 -144
-125 18 -208 62 -299 158 -186 195 -184 494 5 686 114 116 220 158 377 152 67
-2 112 -10 155 -26z m2227 19 c192 -40 355 -212 388 -410 41 -243 -102 -478
-342 -560 -88 -30 -219 -30 -308 1 -269 90 -415 388 -318 648 29 79 62 128
129 193 116 114 286 162 451 128z"/>
<path d="M1746 3560 c-82 -73 -35 -205 75 -205 73 0 119 49 119 125 0 34 -6
48 -34 76 -29 29 -41 34 -80 34 -36 0 -52 -6 -80 -30z"/>
<path d="M4034 3556 c-29 -29 -34 -41 -34 -81 0 -101 83 -148 178 -102 32 15
52 57 52 108 0 33 -6 47 -34 75 -29 29 -41 34 -81 34 -40 0 -52 -5 -81 -34z"/>
</g>
</svg>
